<svg height="511pt" viewBox="0 -91 511.998 511" width="511pt" xmlns="http://www.w3.org/2000/svg"><path d="m483.886719 244.386719h-364.855469v-70.410157c0-4.550781 3.6875-8.242187 8.242188-8.242187h356.613281c4.550781 0 8.242187 3.691406 8.242187 8.242187v62.167969c-.003906 4.550781-3.691406 8.242188-8.242187 8.242188zm0 0" fill="#d1a190"/><path d="m483.886719 244.386719h-19.964844v-78.648438h19.964844c4.550781 0 8.238281 3.6875 8.238281 8.238281v62.167969c0 4.550781-3.6875 8.242188-8.238281 8.242188zm0 0" fill="#c78e7a"/><path d="m344.140625 195.457031h-77.128906c-3.109375 0-5.945313-1.441406-7.308594-3.714843l-15.589844-26.003907h122.929688l-15.589844 26.003907c-1.363281 2.273437-4.199219 3.714843-7.3125 3.714843zm0 0" fill="#f9efef"/><path d="m367.042969 165.738281-15.59375 26.003907c-1.359375 2.269531-4.199219 3.714843-7.304688 3.714843h-20.191406c3.105469 0 5.941406-1.445312 7.304687-3.714843l15.59375-26.003907zm0 0" fill="#e1d3ce"/><path d="m496.253906 165.304688h-356.617187c-4.550781 0-8.242188-3.6875-8.242188-8.238282v-62.167968c0-4.554688 3.691407-8.242188 8.242188-8.242188h356.617187c4.550782 0 8.238282 3.6875 8.238282 8.242188v62.167968c0 4.550782-3.6875 8.238282-8.238282 8.238282zm0 0" fill="#d1a190"/><path d="m496.253906 165.304688h-19.964844v-78.648438h19.964844c4.550782 0 8.238282 3.691406 8.238282 8.242188v62.167968c0 4.550782-3.6875 8.238282-8.238282 8.238282zm0 0" fill="#c78e7a"/><path d="m356.507812 116.375h-77.128906c-3.109375 0-5.945312-1.441406-7.308594-3.710938l-15.589843-26.007812h122.929687l-15.589844 26.007812c-1.363281 2.269532-4.203124 3.710938-7.3125 3.710938zm0 0" fill="#f9efef"/><path d="m379.410156 86.65625-15.59375 26.003906c-1.359375 2.273438-4.199218 3.71875-7.304687 3.71875h-20.191407c3.105469 0 5.941407-1.445312 7.304688-3.71875l15.59375-26.003906zm0 0" fill="#e1d3ce"/><path d="m455.683594 86.65625h-356.617188c-4.550781 0-8.238281-3.6875-8.238281-8.238281v-62.171875c0-4.550782 3.6875-8.242188 8.238281-8.242188h356.617188c4.550781 0 8.238281 3.691406 8.238281 8.242188v62.167968c0 4.550782-3.6875 8.242188-8.238281 8.242188zm0 0" fill="#d1a190"/><path d="m455.683594 86.65625h-19.964844v-78.648438h19.964844c4.550781 0 8.238281 3.6875 8.238281 8.238282v62.171875c0 4.546875-3.6875 8.238281-8.238281 8.238281zm0 0" fill="#c78e7a"/><path d="m315.9375 37.726562h-77.128906c-3.109375 0-5.945313-1.441406-7.308594-3.714843l-15.589844-26.003907h122.929688l-15.59375 26.003907c-1.359375 2.273437-4.199219 3.714843-7.308594 3.714843zm0 0" fill="#f9efef"/><path d="m338.839844 8.007812-15.59375 26.003907c-1.363282 2.273437-4.199219 3.714843-7.304688 3.714843h-20.191406c3.105469 0 5.941406-1.441406 7.304688-3.714843l15.59375-26.003907zm0 0" fill="#e1d3ce"/><path d="m79.960938 312.964844h-68.464844c-2.203125 0-3.988282-1.789063-3.988282-3.992188v-105.519531c0-2.203125 1.785157-3.992187 3.988282-3.992187h68.464844c2.203124 0 3.992187 1.789062 3.992187 3.992187v105.519531c0 2.207032-1.789063 3.992188-3.992187 3.992188zm0 0" fill="#f72c2c"/><path d="m79.960938 312.964844h-68.464844c-2.203125 0-3.988282-1.789063-3.988282-3.992188v-35.914062h76.445313v35.917968c0 2.203126-1.789063 3.988282-3.992187 3.988282zm0 0" fill="#e32929"/><path d="m336.480469 224.957031c-5.761719-6.875-15.285157-9.28125-23.621094-5.964843l-52.75 20.988281c-7.761719 3.085937-16.34375 3.40625-24.3125.910156l-15.851563-4.972656c-2.957031-.925781-3.355468-4.949219-.636718-6.441407l14.132812-7.757812c8.203125-4.5 11.289063-14.746094 6.933594-23.03125-3.804688-7.234375-12.1875-10.78125-20.027344-8.472656l-62.113281 18.261718c-11.183594 3.289063-22.78125 4.960938-34.441406 4.960938h-12.785157v82.09375c22.777344 17.238281 72.875 23.574219 98.492188 25.75 12.085938 1.023438 24.253906-.617188 35.59375-4.914062 39.433594-14.949219 73.046875-45.640626 90.398438-63.605469 7.394531-7.652344 7.824218-19.648438.988281-27.804688zm0 0" fill="#ffdfcf"/><path d="m341.339844 238.3125c0 5.222656-1.964844 10.4375-5.84375 14.449219-17.355469 17.960937-50.96875 48.660156-90.402344 63.605469-11.339844 4.292968-23.511719 5.941406-35.585938 4.910156-25.625-2.167969-75.726562-8.507813-98.5-25.742188v-17.855468c22.773438 17.246093 72.875 23.578124 98.5 25.757812 12.074219 1.015625 24.25-.621094 35.585938-4.921875 39.433594-14.949219 73.046875-45.636719 90.402344-63.597656 1.617187-1.667969 2.894531-3.53125 3.828125-5.527344 1.339843 2.820313 2.015625 5.875 2.015625 8.921875zm0 0" fill="#ffcebf"/><path d="m107.191406 303.730469h-23.238281v-95.035157h23.238281c2.109375 0 3.816406 1.710938 3.816406 3.820313v87.394531c0 2.109375-1.707031 3.820313-3.816406 3.820313zm0 0" fill="#f9efef"/><path d="m107.191406 303.730469h-23.238281v-35.003907h27.054687v31.1875c0 2.105469-1.707031 3.816407-3.816406 3.816407zm0 0" fill="#efe2dd"/><path d="m496.253906 79.148438h-24.859375c.007813-.242188.035157-.484376.035157-.730469v-62.171875c0-8.683594-7.066407-15.746094-15.746094-15.746094h-299.875c-4.148438 0-7.507813 3.359375-7.507813 7.507812 0 4.144532 3.359375 7.507813 7.507813 7.507813h55.847656l13.40625 22.359375c2.71875 4.539062 7.988281 7.359375 13.746094 7.359375h77.128906c5.757812 0 11.027344-2.820313 13.75-7.359375l13.402344-22.359375h112.589844c.40625 0 .734374.328125.734374.730469v62.167968c0 .40625-.328124.734376-.734374.734376h-356.613282c-.402344 0-.734375-.328126-.734375-.730469v-62.171875c0-.402344.332031-.730469.734375-.730469h23.542969c4.144531 0 7.507813-3.363281 7.507813-7.507813 0-4.148437-3.363282-7.507812-7.507813-7.507812h-23.542969c-8.683594 0-15.746094 7.0625-15.746094 15.746094v62.171875c0 8.683593 7.0625 15.746093 15.746094 15.746093h24.859375c-.011719.242188-.035156.484376-.035156.730469v62.171875c0 .511719.027344 1.015625.074219 1.515625-7.101563 1.523438-12.441406 7.84375-12.441406 15.394531v28.089844c-1.335938-.558594-2.796876-.878906-4.332032-.878906h-15.957031c-1.054687-5.261719-5.707031-9.234375-11.273437-9.234375h-68.464844c-6.339844 0-11.496094 5.160156-11.496094 11.5v13.144531c0 4.148438 3.363281 7.507813 7.507812 7.507813 4.144532 0 7.507813-3.359375 7.507813-7.507813v-9.628906h61.429687v98.488281h-61.429687v-54.488281c0-4.148438-3.363281-7.507812-7.507813-7.507812-4.144531 0-7.507812 3.359374-7.507812 7.507812v58.007812c0 6.339844 5.15625 11.496094 11.496094 11.496094h68.464844c5.566406 0 10.21875-3.972656 11.273437-9.234375h15.957031c3.417969 0 6.484375-1.53125 8.5625-3.933593 14.53125 7.652343 42.144532 17.128906 93.113282 21.457031 2.5.210937 5.007812.316406 7.511718.316406 10.738282 0 21.457032-1.933594 31.375-5.695313 41.113282-15.582031 76-47.667968 93.136719-65.40625 1.800781-1.863281 3.289063-3.910156 4.484375-6.082031h138.507812c8.683594 0 15.75-7.066406 15.75-15.75v-62.167969c0-.511718-.03125-1.019531-.078124-1.519531 7.101562-1.523437 12.441406-7.84375 12.441406-15.390625v-62.167968c.003906-8.683594-7.058594-15.75-15.742188-15.75zm-179.355468-49.148438c-.132813.074219-.464844.21875-.960938.21875h-77.128906c-.496094 0-.828125-.144531-.960938-.21875l-8.683594-14.488281h96.421876zm-213.398438 265.53125v.691406h-12.039062v-80.019531h12.039062zm262.65625-201.367188-8.6875 14.484376c-.132812.078124-.464844.21875-.960938.21875h-77.128906c-.492187 0-.828125-.140626-.960937-.21875l-8.683594-14.484376zm-36.0625 153.382813c-16.265625 16.835937-49.28125 47.25-87.660156 61.796875-10.144532 3.847656-21.3125 5.386719-32.296875 4.457031-42.074219-3.570312-75.0625-11.597656-91.621094-22.191406v-70.667969h5.277344c12.382812 0 24.683593-1.769531 36.558593-5.261718l62.113282-18.265626c4.394531-1.289062 9.132812.714844 11.265625 4.769532 2.433593 4.625.6875 10.4375-3.898438 12.953125l-14.136719 7.757812c-3.878906 2.128907-6.105468 6.351563-5.667968 10.753907.4375 4.40625 3.449218 8.109374 7.671875 9.433593l15.851562 4.96875c9.582031 3.003907 20 2.617188 29.332031-1.097656l52.75-20.984375c5.335938-2.121094 11.402344-.59375 15.09375 3.808594 4.375 5.226562 4.105469 12.863281-.632812 17.769531zm154.527344-11.402344c0 .40625-.332032.734375-.734375.734375h-135.0625c-.300781-5.953125-2.488281-11.847656-6.589844-16.742187v-.003907c-7.859375-9.378906-20.78125-12.640624-32.152344-8.117187l-52.75 20.988281c-6.136719 2.441406-12.988281 2.695313-19.289062.722656l-6.921875-2.171874 5.933594-3.253907c11.714843-6.429687 16.183593-21.28125 9.964843-33.105469-5.449219-10.363281-17.558593-15.492187-28.792969-12.183593l-62.113281 18.261719c-9.621093 2.832031-19.558593 4.367187-29.578125 4.605468v-31.902344c0-.402343.328125-.730468.734375-.730468h112.589844l13.402344 22.355468c2.722656 4.542969 7.992187 7.363282 13.75 7.363282h77.128906c5.757813 0 11.023437-2.820313 13.746094-7.363282l13.40625-22.355468h112.589843c.40625 0 .734376.328125.734376.730468v62.167969zm-227.253906-62.898437h96.421874l-8.6875 14.484375c-.132812.078125-.464843.21875-.960937.21875h-77.128906c-.492188 0-.828125-.140625-.960938-.21875zm239.617187-16.179688c0 .402344-.328125.730469-.730469.730469h-356.617187c-.40625 0-.734375-.328125-.734375-.730469v-62.167968c0-.40625.332031-.734376.734375-.734376h112.589843l13.402344 22.359376c2.722656 4.539062 7.992188 7.359374 13.75 7.359374h77.128906c5.757813 0 11.027344-2.820312 13.75-7.359374l13.402344-22.359376h112.589844c.40625 0 .734375.328126.734375.730469zm0 0"/></svg>