<?xml version="1.0" encoding="iso-8859-1"?>
<!-- Generator: Adobe Illustrator 19.0.0, SVG Export Plug-In . SVG Version: 6.00 Build 0)  -->
<svg version="1.1" id="Capa_1" xmlns="http://www.w3.org/2000/svg" xmlns:xlink="http://www.w3.org/1999/xlink" x="0px" y="0px"
	 viewBox="0 0 512 512" style="enable-background:new 0 0 512 512;" xml:space="preserve">
<path style="fill:#947165;" d="M256,477.927c-18.945,0-36.757-7.377-50.154-20.774L54.531,305.837
	c-62.174-62.173-62.791-163.069-1.374-224.91c30.006-30.216,69.98-46.855,112.558-46.855c32.736,0,63.961,9.851,90.286,28.149
	c26.325-18.297,57.549-28.149,90.286-28.149c42.577,0,82.551,16.64,112.558,46.855c61.416,61.842,60.8,162.737-1.375,224.911
	L306.153,457.152C292.757,470.55,274.945,477.927,256,477.927z"/>
<path style="fill:#F4D06D;" d="M248.239,95.254c-50.279-42.679-125.797-40.187-173.129,7.474
	c-49.726,50.071-48.6,131.332,1.299,181.232l151.316,151.316c15.616,15.616,40.936,15.616,56.552,0L435.592,283.96
	c49.899-49.899,51.025-131.16,1.299-181.232c-47.33-47.658-122.841-50.152-173.12-7.482
	C259.285,99.053,252.724,99.061,248.239,95.254z"/>
<g>
	<path style="fill:#ED6EA4;" d="M349.455,304.072c-40.577,0-73.471,32.894-73.471,73.471c0,18.392,6.774,35.194,17.943,48.081
		l103.608-103.608C384.648,310.846,367.847,304.072,349.455,304.072z"/>
	<path style="fill:#ED6EA4;" d="M136.39,68.413c-22.477,5.281-43.801,16.713-61.28,34.314
		c-20.015,20.154-31.785,45.362-35.459,71.543c10.773,6.198,23.255,9.762,36.576,9.762c40.577,0,73.471-32.894,73.471-73.471
		C149.698,94.874,144.765,80.348,136.39,68.413z"/>
	<path style="fill:#ED6EA4;" d="M145.964,259.022c-25.667,0-48.245,13.169-61.383,33.111l101.743,101.744
		c19.941-13.138,33.111-35.718,33.111-61.383C219.435,291.916,186.541,259.022,145.964,259.022z"/>
	<path style="fill:#ED6EA4;" d="M348.212,65.028c-30.022-0.45-60.171,9.62-84.442,30.219c-4.485,3.806-11.047,3.815-15.531,0.008
		c-13.603-11.547-29.057-19.78-45.297-24.715c-0.277,2.595-0.428,5.227-0.428,7.896c0,40.577,32.894,73.471,73.471,73.471
		s73.471-32.894,73.471-73.471C349.455,73.854,349.015,69.377,348.212,65.028z"/>
	<path style="fill:#ED6EA4;" d="M468.068,154.874c-14.488-17.91-36.634-29.372-61.466-29.372c-43.649,0-79.033,35.384-79.033,79.033
		s35.384,79.033,79.033,79.033c13.852,0,26.866-3.574,38.186-9.834C472.289,239.739,480.223,194.847,468.068,154.874z"/>
</g>
<path style="opacity:0.12;enable-background:new    ;" d="M436.89,102.728c-19.498-19.633-43.78-31.601-69.11-35.904
	c14.689,6.275,28.445,15.422,40.399,27.46c49.726,50.071,48.601,131.332-1.299,181.232L255.565,426.832
	c-6.815,6.815-15.477,10.654-24.376,11.521c15.697,12.452,38.577,11.432,53.086-3.077L435.591,283.96
	C485.491,234.06,486.616,152.8,436.89,102.728z"/>
<g>
	<path style="fill:#FFFFFF;" d="M162.544,232.337h-16.58c-4.142,0-7.5-3.357-7.5-7.5c0-4.143,3.358-7.5,7.5-7.5h16.58
		c4.142,0,7.5,3.357,7.5,7.5C170.045,228.98,166.687,232.337,162.544,232.337z"/>
	<path style="fill:#FFFFFF;" d="M366.035,232.337h-16.58c-4.142,0-7.5-3.357-7.5-7.5c0-4.143,3.358-7.5,7.5-7.5h16.58
		c4.142,0,7.5,3.357,7.5,7.5C373.535,228.98,370.177,232.337,366.035,232.337z"/>
</g>
<circle style="opacity:0.12;enable-background:new    ;" cx="312.717" cy="364.848" r="7.04"/>
<circle style="opacity:0.12;enable-background:new    ;" cx="138.923" cy="290.617" r="7.04"/>
<circle style="opacity:0.12;enable-background:new    ;" cx="166.744" cy="337.858" r="7.04"/>
<circle style="opacity:0.12;enable-background:new    ;" cx="445.29" cy="184.034" r="7.04"/>
<circle style="opacity:0.12;enable-background:new    ;" cx="397.539" cy="158.953" r="7.04"/>
<circle style="opacity:0.12;enable-background:new    ;" cx="414.469" cy="245.516" r="7.04"/>
<circle style="opacity:0.12;enable-background:new    ;" cx="263.046" cy="122.593" r="7.04"/>
<circle style="opacity:0.12;enable-background:new    ;" cx="319.767" cy="97.742" r="7.04"/>
<circle style="opacity:0.12;enable-background:new    ;" cx="87.632" cy="158.953" r="7.04"/>
<circle style="opacity:0.12;enable-background:new    ;" cx="111.362" cy="115.552" r="7.04"/>
<path d="M464.166,75.642c-31.426-31.644-73.29-49.069-117.88-49.069c-32.372,0-63.474,9.185-90.286,26.612
	c-26.812-17.427-57.914-26.612-90.286-26.612c-44.591,0-86.454,17.426-117.879,49.069c-64.321,64.767-63.695,170.411,1.393,235.5
	l26.056,26.056c2.929,2.928,7.678,2.928,10.606,0c2.929-2.93,2.929-7.678,0-10.608l-26.056-26.056
	C0.575,241.274-0.034,145.129,58.478,86.212c28.588-28.787,66.671-44.64,107.236-44.64c31.035,0,60.774,9.27,86.005,26.807
	c2.574,1.789,5.987,1.789,8.562,0c25.231-17.536,54.97-26.807,86.005-26.807c40.564,0,78.648,15.853,107.236,44.64
	c58.512,58.918,57.903,155.063-1.357,214.322L300.85,451.85c-11.979,11.979-27.908,18.576-44.85,18.576
	c-16.942,0-32.871-6.598-44.85-18.577L106.857,347.557c-2.929-2.928-7.678-2.928-10.606,0c-2.929,2.93-2.929,7.678,0,10.607
	l104.291,104.292c14.812,14.813,34.507,22.971,55.457,22.971s40.645-8.157,55.457-22.971l151.315-151.315
	C527.86,246.054,528.485,140.409,464.166,75.642z M420.813,88.722c2.215-3.501,1.173-8.134-2.328-10.349
	c-24.281-15.365-52.358-22.48-81.188-20.565c-29.097,1.928-56.199,12.897-78.38,31.721c-1.69,1.436-4.141,1.439-5.825,0.008
	c-25.854-21.946-58.825-33.28-92.823-31.917c-34.206,1.372-66.339,15.514-90.481,39.824c-20.963,21.109-33.427,47.569-37.437,75.115
	c-0.09,0.381-0.143,0.766-0.171,1.151c-5.597,40.889,7.41,84.039,38.926,115.555l8.152,8.152c0.013,0.013,0.026,0.026,0.04,0.039
	L222.42,440.58c8.969,8.969,20.895,13.908,33.58,13.908c12.684,0,24.61-4.939,33.58-13.908l151.316-151.317
	c25.41-25.41,39.686-59.182,40.198-95.096c0.514-36.05-12.925-70.025-37.842-95.667c-2.887-2.971-7.635-3.038-10.605-0.152
	c-2.971,2.887-3.039,7.635-0.152,10.605c5.838,6.008,10.959,12.537,15.337,19.476c-12.484-6.775-26.59-10.427-41.229-10.427
	c-47.715,0-86.534,38.818-86.534,86.533c0,47.714,38.819,86.532,86.534,86.532c4.071,0,8.129-0.299,12.142-0.869l-21.794,21.793
	c-13.766-9.984-30.383-15.42-47.496-15.42c-44.648,0-80.971,36.323-80.971,80.971c0,17.113,5.436,33.73,15.42,47.497l-4.932,4.932
	c-12.667,12.668-33.278,12.668-45.945,0l-35.266-35.266c18.409-15.31,29.174-37.963,29.174-62.213c0-4.142-3.358-7.5-7.5-7.5
	c-4.142,0-7.5,3.358-7.5,7.5c0,20.216-9.182,39.076-24.831,51.556l-92.697-92.697c12.48-15.648,31.34-24.831,51.556-24.831
	c26.65,0,50.537,15.878,60.856,40.451c1.205,2.871,3.988,4.599,6.918,4.599c0.968,0,1.953-0.188,2.901-0.587
	c3.819-1.603,5.615-6,4.011-9.818c-12.663-30.158-41.98-49.645-74.687-49.645c-24.252,0-46.903,10.764-62.213,29.174l-2.039-2.039
	C56.182,253.127,44.29,219.038,46.089,185.7c9.546,3.83,19.787,5.832,30.137,5.832c44.647,0,80.971-36.323,80.971-80.971
	c0-12.924-3.044-25.452-8.853-36.791c4.13-0.599,8.308-0.994,12.523-1.163c11.635-0.465,23.13,0.746,34.18,3.515
	c-0.023,0.775-0.036,1.546-0.036,2.312c0,44.647,36.324,80.971,80.971,80.971s80.971-36.323,80.971-80.971
	c0-1.818-0.085-3.649-0.212-5.484c19.065,1.623,37.366,7.747,53.721,18.097C413.964,93.264,418.597,92.222,420.813,88.722z
	 M406.602,276.068c-39.444,0-71.534-32.089-71.534-71.532s32.09-71.533,71.534-71.533c21.234,0,41.112,9.295,54.764,25.542
	c3.282,11.332,4.901,23.236,4.727,35.409c-0.387,27.125-9.592,52.876-26.182,73.88C429.694,273.22,418.211,276.068,406.602,276.068z
	 M283.484,377.543c0-36.376,29.595-65.971,65.971-65.971c13.134,0,25.906,3.939,36.719,11.197l-91.492,91.493
	C287.423,403.448,283.484,390.677,283.484,377.543z M76.226,176.533c-9.803,0-19.484-2.203-28.295-6.391
	c4.224-22.811,15.049-44.557,32.499-62.128c14.747-14.849,32.848-25.432,52.594-30.996c6.015,10.143,9.173,21.64,9.173,33.545
	C142.198,146.938,112.603,176.533,76.226,176.533z M275.984,144.406c-35.531,0-64.575-28.239-65.907-63.448
	c12.011,4.766,23.264,11.489,33.307,20.014c7.309,6.204,17.924,6.202,25.24-0.007c19.71-16.728,43.8-26.477,69.666-28.19
	c1.135-0.075,2.266-0.115,3.398-0.159c0.176,1.95,0.268,3.895,0.268,5.819C341.955,114.811,312.36,144.406,275.984,144.406z
	 M357.745,178.346c-4.142,0-7.5,3.357-7.5,7.5v7.447c0,4.143,3.358,7.5,7.5,7.5s7.5-3.357,7.5-7.5v-7.447
	C365.245,181.703,361.887,178.346,357.745,178.346z M154.254,178.346c-4.142,0-7.5,3.357-7.5,7.5v7.447c0,4.143,3.358,7.5,7.5,7.5
	c4.142,0,7.5-3.357,7.5-7.5v-7.447C161.754,181.703,158.396,178.346,154.254,178.346z M277.21,202.461
	c0,3.78-3.075,6.855-6.855,6.855c-3.78,0-6.855-3.075-6.855-6.855c0-4.143-3.358-7.5-7.5-7.5s-7.5,3.357-7.5,7.5
	c0,3.78-3.075,6.855-6.855,6.855s-6.855-3.075-6.855-6.855c0-4.143-3.358-7.5-7.5-7.5c-4.142,0-7.5,3.357-7.5,7.5
	c0,12.051,9.804,21.856,21.856,21.856c5.489,0,10.512-2.034,14.355-5.389c3.843,3.355,8.866,5.389,14.355,5.389
	c12.051,0,21.856-9.805,21.856-21.856c0-4.143-3.358-7.5-7.5-7.5C280.568,194.96,277.21,198.318,277.21,202.461z"/>
<g>
</g>
<g>
</g>
<g>
</g>
<g>
</g>
<g>
</g>
<g>
</g>
<g>
</g>
<g>
</g>
<g>
</g>
<g>
</g>
<g>
</g>
<g>
</g>
<g>
</g>
<g>
</g>
<g>
</g>
</svg>
