<svg height="512" viewBox="0 0 128 128" width="512" xmlns="http://www.w3.org/2000/svg"><g><g><path d="m107.338 50.071v12.888a2.21 2.21 0 0 1 -3.626 1.7l-9.747-8.14 9.747-8.14a2.209 2.209 0 0 1 3.626 1.692z" fill="#f69c8f"/><path d="m85.76 39.867h-53.686v33.3h53.686c6.356 0 11.509-7.453 11.509-16.647s-5.153-16.653-11.509-16.653z" fill="#f66755"/><ellipse cx="32.074" cy="56.515" fill="#f69c8f" rx="11.509" ry="16.647"/><path d="m56.876 54.837h-9.209v33.3h9.209c6.356 0 11.509-7.454 11.509-16.647s-5.153-16.653-11.509-16.653z" fill="#f69c8f"/><ellipse cx="47.667" cy="71.485" fill="#fecccd" rx="11.509" ry="16.647"/></g><g fill="#9a2700"><path d="m106.854 46.484a3.929 3.929 0 0 0 -4.216.548l-4.284 3.578c-1.779-7.252-6.725-12.492-12.545-12.492h-21.226a1.75 1.75 0 0 0 0 3.5h21.226c5.38 0 9.758 6.683 9.758 14.9s-4.378 14.9-9.758 14.9h-9.809a1.75 1.75 0 0 0 0 3.5h9.809c7.31 0 13.258-8.253 13.258-18.4q0-.954-.069-1.883l5.883-4.913a.459.459 0 0 1 .755.352v12.885a.461.461 0 0 1 -.754.354l-2.307-1.927a1.75 1.75 0 1 0 -2.244 2.685l2.308 1.929a3.934 3.934 0 0 0 2.528.926 3.978 3.978 0 0 0 1.687-.379 3.924 3.924 0 0 0 2.282-3.587v-12.889a3.926 3.926 0 0 0 -2.282-3.587z"/><path d="m57.074 41.618h1a1.75 1.75 0 0 0 0-3.5h-1a1.75 1.75 0 0 0 0 3.5z"/><path d="m56.925 53.088h-9.209c-7.183 0-13.036 7.971-13.24 17.87a6.478 6.478 0 0 1 -2.354.454c-5.381 0-9.758-6.683-9.758-14.9s4.377-14.9 9.758-14.9c3.583 0 6.985 3.177 8.666 8.093a1.751 1.751 0 1 0 3.312-1.127 18.225 18.225 0 0 0 -4.143-6.96h10.376a1.75 1.75 0 0 0 0-3.5h-18.211c-7.31 0-13.258 8.253-13.258 18.4s5.948 18.4 13.258 18.4h2.566a24.31 24.31 0 0 0 .594 3.01 1.751 1.751 0 0 0 3.383-.9 21.478 21.478 0 0 1 -.708-5.535c0-8.214 4.378-14.9 9.759-14.9s9.759 6.683 9.759 14.9-4.378 14.9-9.759 14.9a6.564 6.564 0 0 1 -2.757-.618 1.75 1.75 0 0 0 -1.459 3.168 10.036 10.036 0 0 0 4.22.939h9.209c7.31 0 13.259-8.253 13.259-18.4s-5.953-18.394-13.263-18.394zm0 33.294h-1.461c3.331-3.345 5.511-8.768 5.511-14.9s-2.18-11.552-5.511-14.9h1.461c5.381 0 9.759 6.683 9.759 14.9s-4.378 14.9-9.759 14.9z"/><path d="m40.65 81.7a1.75 1.75 0 1 0 -2.968 1.854c.171.274.347.542.53.8a1.75 1.75 0 1 0 2.863-2.013c-.145-.204-.287-.419-.425-.641z"/></g></g></svg>