<svg height="512pt" viewBox="-15 0 511 512" width="512pt" xmlns="http://www.w3.org/2000/svg"><path d="m474.621094 287.105469c0 120.066406-104.457032 217.394531-233.3125 217.394531-128.851563 0-233.308594-97.328125-233.308594-217.394531 0-57.675781 24.097656-110.097657 63.425781-149.007813 24.289063-24.03125 58.671875-35.023437 92.382813-29.445312 23.492187 3.886718 49.769531 6.0625 77.5 6.0625 27.734375 0 54.011718-2.175782 77.503906-6.0625 33.710938-5.574219 68.09375 5.414062 92.382812 29.445312 39.324219 38.910156 63.425782 91.332032 63.425782 149.007813zm0 0" fill="#ff7061"/><path d="m264.808594 503.410156c-7.730469.71875-15.570313 1.089844-23.5 1.089844-128.847656 0-233.308594-97.328125-233.308594-217.398438 0-57.671874 24.101562-110.089843 63.429688-149 24.28125-24.03125 58.671874-35.023437 92.378906-29.453124 2.25.371093 4.53125.730468 6.832031 1.070312-19.492187 4.269531-37.660156 13.980469-52.210937 28.382812-39.328126 38.910157-63.429688 91.328126-63.429688 149 0 112.679688 91.988281 205.328126 209.808594 216.308594zm0 0" fill="#f74f43"/><path d="m349.308594 143.296875c0-13.589844-48.351563-24.605469-108-24.605469-59.644532 0-108 11.015625-108 24.605469s48.355468 24.605469 108 24.605469c59.648437 0 108-11.015625 108-24.605469zm0 0" fill="#f74f43"/><path d="m163.386719 130.261719c27.179687 17.378906 128.667969 17.378906 155.847656 0 34.757813-22.226563 56.28125-50.652344 48.070313-63.492188-8.210938-12.835937-43.046876-5.222656-77.804688 17.003907-2.679688 1.710937-5.277344 3.464843-7.792969 5.242187-5.402343 3.820313-12.808593-.019531-12.804687-6.632813 0-.0625 0-.121093 0-.179687 0-41.257813-12.351563-74.703125-27.59375-74.703125-15.238282 0-27.59375 33.445312-27.59375 74.703125v.179687c.007812 6.613282-7.402344 10.453126-12.800782 6.632813-2.515624-1.777344-5.113281-3.53125-7.792968-5.242187-34.761719-22.226563-69.59375-29.839844-77.804688-17.003907-8.210937 12.839844 13.3125 41.265625 48.070313 63.492188zm0 0" fill="#77bc4d"/><path d="m319.230469 130.261719c-27.179688 17.378906-128.660157 17.378906-155.839844 0-34.761719-22.230469-56.28125-50.652344-48.070313-63.492188.441407-.679687.949219-1.308593 1.53125-1.859375 6.828126 13.71875 23.867188 30.851563 46.539063 45.351563 27.179687 17.378906 128.660156 17.378906 155.839844 0 22.667969-14.5 39.710937-31.632813 46.539062-45.351563.582031.550782 1.089844 1.179688 1.53125 1.859375 8.210938 12.839844-13.3125 41.261719-48.070312 63.492188zm0 0" fill="#479838"/><path d="m474.394531 299.003906c-4.125-.382812-7.78125 2.636719-8.171875 6.757813-4.921875 51.957031-30.441406 100.132812-71.855468 135.652343-41.796876 35.84375-96.152344 55.585938-153.058594 55.585938-64.898438 0-126.726563-26.015625-169.632813-71.378906-2.84375-3.007813-7.59375-3.140625-10.601562-.292969-3.007813 2.847656-3.140625 7.59375-.296875 10.601563 45.730468 48.34375 111.53125 76.070312 180.53125 76.070312 60.484375 0 118.308594-21.023438 162.820312-59.199219 44.378906-38.0625 71.734375-89.777343 77.023438-145.625.394531-4.121093-2.632813-7.78125-6.757813-8.171875zm0 0"/><path d="m15.5 287.105469c0-53.601563 21.734375-104.628907 61.199219-143.675781 14.992187-14.832032 34.660156-24.605469 55.511719-27.648438 6.226562 5.769531 13.316406 11.421875 21.015624 16.730469-21.039062 6.679687-48.859374 20.804687-69.933593 50.671875-2.386719 3.386718-1.578125 8.066406 1.804687 10.453125 1.316406.925781 2.824219 1.371093 4.316406 1.371093 2.355469 0 4.675782-1.105468 6.136719-3.175781 24.210938-34.3125 58.570313-45.273437 76.898438-48.75.40625-.078125.792969-.195312 1.171875-.332031 12.480468 3.941406 33.644531 8.046875 67.691406 8.046875 1.191406 0 2.347656-.011719 3.507812-.023437 1.570313 1.503906 4.089844 4.195312 6.765626 8.179687 4.347656 6.476563 9.855468 17.59375 11.429687 33.769531.375 3.878906 3.636719 6.777344 7.453125 6.777344.242188 0 .488281-.011719.734375-.035156 4.121094-.402344 7.140625-4.066406 6.738281-8.191406-1.835937-18.921876-8.246094-32.382813-14.222656-41.136719 4.589844-.28125 8.878906-.644531 12.855469-1.074219 6.921875.324219 57.808593 4.269531 90.398437 50.457031 1.460938 2.070313 3.777344 3.175781 6.132813 3.175781 1.496093 0 3.003906-.445312 4.316406-1.371093 3.386719-2.386719 4.191406-7.066407 1.804687-10.453125-19.855468-28.144532-45.394531-42.339844-66.121093-49.511719 5.332031-1.957031 8.539062-3.738281 10.171875-4.78125 10.074218-6.441406 19.289062-13.527344 27.132812-20.796875 20.855469 3.042969 40.519532 12.8125 55.511719 27.648438 35.5625 35.183593 57.101563 81.023437 60.652344 129.070312.292969 3.941406 3.582031 6.949219 7.472656 6.949219.183594 0 .375-.007813.5625-.023438 4.128906-.304687 7.230469-3.898437 6.925781-8.03125-3.816406-51.660156-26.925781-100.894531-65.0625-138.628906-14.8125-14.65625-33.585937-25.011719-53.789062-29.871094.929687-1.128906 1.832031-2.25 2.679687-3.371093 14.246094-18.8125 12.355469-30.390626 8.261719-36.792969-3.914062-6.117188-13.109375-12.539063-34.675781-8.378907-4.066407.785157-6.726563 4.71875-5.941407 8.785157.78125 4.066406 4.71875 6.730469 8.78125 5.945312 11.125-2.144531 17.660157-.675781 19.199219 1.730469 1.664063 2.601562-.039062 9.6875-7.585937 19.65625-8.554688 11.300781-22.125 23.191406-38.207032 33.476562-11.261718 7.199219-40.261718 11.851563-73.882812 11.851563s-62.621094-4.652344-73.882812-11.851563c-16.082032-10.285156-29.652344-22.175781-38.210938-33.476562-7.546875-9.96875-9.246094-17.054688-7.582031-19.65625 3.671875-5.746094 30.808593-4.148438 67.445312 19.28125 2.535157 1.617188 5.058594 3.316406 7.503907 5.042969 4.796874 3.394531 11.007812 3.828125 16.207031 1.132812 5.203125-2.695312 8.429687-8.023437 8.425781-13.890625v-.179687c-.003906-43.480469 13.269531-67.199219 20.089844-67.199219 6.820312 0 20.09375 23.71875 20.09375 67.199219v.171875c-.003906 5.878906 3.222656 11.203125 8.425781 13.898437 5.199219 2.695313 11.410156 2.261719 16.210937-1.132812 2.441407-1.726563 4.964844-3.425781 7.5-5.042969 5.722657-3.660156 11.613282-7.003906 17.511719-9.941406 3.707031-1.84375 5.21875-6.347656 3.371094-10.054688-1.847656-3.707031-6.347656-5.21875-10.058594-3.371094-6.371093 3.171876-12.734375 6.78125-18.902343 10.726563-2.730469 1.746094-5.449219 3.574219-8.082032 5.4375-.121094.085937-.324218.230469-.652344.0625-.324218-.167969-.324218-.40625-.324218-.570313v-.179687c0-20.820313-3.035156-40.5-8.546875-55.421875-8.175781-22.136719-18.949219-26.78125-26.546875-26.78125-23.039063 0-35.09375 41.351562-35.09375 82.199219v.1875c0 .15625 0 .394531-.324219.5625s-.527344.027343-.648437-.058594c-2.632813-1.863281-5.351563-3.691406-8.082032-5.4375-17.539062-11.214844-35.757812-19.261719-51.296875-22.65625-23.054687-5.039063-32.769531 1.53125-36.863281 7.933594-4.09375 6.398437-5.984375 17.980469 8.257812 36.792969.847657 1.117187 1.753907 2.242187 2.683594 3.367187-20.199218 4.863281-38.980468 15.222656-53.789062 29.875-42.335938 41.886719-65.652344 96.699219-65.652344 154.339844 0 43.015625 13.050781 84.828125 37.738281 120.921875 1.453125 2.121094 3.804688 3.265625 6.199219 3.265625 1.457031 0 2.933594-.425781 4.226562-1.3125 3.421876-2.335938 4.296876-7.003907 1.957032-10.421875-22.976563-33.589844-35.121094-72.472656-35.121094-112.453125zm0 0"/><path d="m389.121094 230.378906c-3.65625 1.945313-5.042969 6.484375-3.097656 10.144532.054687.105468 5.71875 11.277343 6.449218 31.351562.148438 4.046875 3.472656 7.226562 7.492188 7.226562.089844 0 .183594 0 .277344-.003906 4.136718-.152344 7.371093-3.628906 7.222656-7.769531-.867188-23.8125-7.902344-37.289063-8.199219-37.851563-1.945313-3.65625-6.488281-5.042968-10.144531-3.097656zm0 0"/></svg>