<svg id="Layer_1" enable-background="new 0 0 512 512" height="512" viewBox="0 0 512 512" width="512" xmlns="http://www.w3.org/2000/svg"><g><g><path d="m347.778 415.998h-183.556v-43.131c0-30.018 24.335-54.353 54.353-54.353h74.849c30.018 0 54.353 24.335 54.353 54.353v43.131z" fill="#4a8ad8"/><path d="m217.419 318.543c-29.482.618-53.196 24.693-53.196 54.324v43.131h53.196z" fill="#f7c948"/><path d="m164.223 372.867v22.155c0-29.63 23.714-53.706 53.196-54.324v-22.155c-29.483.618-53.196 24.694-53.196 54.324z" fill="#ffe98a"/><path d="m294.582 318.543c29.482.618 53.196 24.693 53.196 54.324v43.131h-53.196z" fill="#f7c948"/><path d="m294.581 318.543v22.155c29.483.618 53.196 24.693 53.196 54.324v-22.155c.001-29.63-23.713-53.706-53.196-54.324z" fill="#ffe98a"/><path d="m218.575 318.514c-.388 0-.771.021-1.157.029l18.914 35.03c8.313 15.397 30.403 15.397 38.717 0l18.666-34.571c-.128-.215-.163-.273-.291-.488z" fill="#ffcca6"/><path d="m256 322.325c-39.764 0-72-32.235-72-72v-87.999h144v87.999c0 39.765-32.236 72-72 72z" fill="#ffcca6"/><path d="m184 214.05c20.732 4.345 42.323 1.614 61.321-7.757l42.68-21.053 39.999 28.81v-51.724h-144z" fill="#f4ad7d"/><path d="m288.001 170.326-42.68 21.053c-18.997 9.371-40.588 12.102-61.321 7.757l-15.564 10.597v-54.008c1.286-28.348 22.545-55.855 57.224-58.714 20.369-1.679 42.395-1.28 64.252 1.315 33.807 4.013 55.268 29.051 55.268 58.517v54.57l-17.18-12.277z" fill="#c9743a"/><path d="m289.912 98.326c-21.857-2.594-43.882-2.994-64.252-1.315-34.679 2.859-55.938 30.365-57.224 58.714v16.619c1.286-28.349 22.545-55.855 57.224-58.714 20.37-1.679 42.395-1.28 64.252 1.315 33.807 4.013 55.268 29.051 55.268 58.517v-16.619c0-29.466-21.461-54.504-55.268-58.517z" fill="#e58a4c"/><g fill="#eaa178"><path d="m157.907 230.783c0 14.411 11.682 26.093 26.093 26.093v-52.186c-14.41 0-26.093 11.682-26.093 26.093z"/><path d="m354.093 230.783c0 14.411-11.682 26.093-26.093 26.093v-52.186c14.41 0 26.093 11.682 26.093 26.093z"/></g></g><g fill="#402943"><path d="m296.488 314.595c18.541-11.722 31.678-31.23 34.786-53.9 15.058-1.638 26.819-14.425 26.819-29.912 0-8.341-3.413-15.898-8.913-21.354v-52.586c0-32.684-24.178-58.38-58.796-62.489-21.763-2.583-44.257-3.043-65.052-1.329-38.256 3.153-59.59 33.837-60.891 62.519-.002.06-.004.121-.004.181v52.221c-6.438 5.523-10.529 13.71-10.529 22.837 0 15.487 11.761 28.274 26.819 29.912 3.108 22.671 16.245 42.178 34.786 53.9-30.758 1.599-55.29 27.124-55.29 58.272v43.131c0 2.209 1.791 4 4 4h183.556c2.209 0 4-1.791 4-4v-43.131c-.001-31.148-24.534-56.673-55.291-58.272zm-83.069 97.404h-45.197v-39.131c0-26.024 19.845-47.5 45.197-50.091zm136.674-181.216c0 10.817-7.814 19.843-18.093 21.73v-2.188-41.273c1.929.354 3.769.964 5.491 1.781 1.843.874 4.51 2.77 5.954 4.178 4.105 4.004 6.648 9.598 6.648 15.772zm-170.092 19.543v2.188c-10.28-1.887-18.093-10.913-18.093-21.73s7.814-19.843 18.093-21.73zm1.748-54.496-9.313 6.341v-46.352c1.182-25.161 19.941-52.049 53.552-54.82 20.268-1.671 42.211-1.222 63.452 1.3 30.463 3.616 51.739 26.045 51.739 54.545v46.795l-10.842-7.748-39.999-28.81c-.693-.499-1.514-.754-2.338-.754-.603 0-1.208.136-1.769.413l-42.681 21.053c-18.109 8.933-38.967 11.572-58.73 7.429-1.062-.225-2.172-.005-3.071.608zm6.252 54.496v-45.636-.768c20.047 3.159 40.85.043 59.09-8.955l40.524-19.99 36.385 26.207v3.506 45.636c0 37.495-30.504 67.999-68 67.999s-67.999-30.504-67.999-67.999zm99.274 72.188-15.744 29.159c-3.194 5.916-9.116 9.448-15.839 9.448s-12.645-3.532-15.839-9.448l-15.744-29.159h7.266c.239 0 .47-.03.697-.07 7.529 2.505 15.569 3.881 23.928 3.881 8.306 0 16.297-1.358 23.785-3.833.073.004.142.022.216.022zm3.307 89.485h-69.163v-77.628l11.395 21.103c4.614 8.545 13.166 13.647 22.878 13.647 9.711 0 18.264-5.102 22.878-13.647l12.012-22.247zm53.196 0h-45.196v-89.222c25.351 2.591 45.196 24.067 45.196 50.091z"/><path d="m240 228.074c0 1.1-.392 2.042-1.175 2.825s-1.725 1.175-2.825 1.175-2.042-.392-2.825-1.175-1.175-1.725-1.175-2.825c0-6.634 2.342-12.292 7.025-16.976 4.684-4.684 10.342-7.025 16.975-7.025 6.634 0 12.292 2.342 16.976 7.025 4.684 4.684 7.025 10.342 7.025 16.976s-2.35 12.3-7.05 17.001l-8.25 7.65c-3.133 3.133-4.7 6.917-4.7 11.351 0 1.1-.392 2.042-1.175 2.825s-1.725 1.175-2.825 1.175-2.041-.392-2.824-1.175-1.175-1.725-1.175-2.825c0-6.634 2.349-12.301 7.049-17.001l8.25-7.65c3.133-3.133 4.7-6.917 4.7-11.35s-1.558-8.209-4.675-11.326-6.892-4.675-11.326-4.675c-4.432 0-8.208 1.558-11.324 4.675-3.118 3.116-4.676 6.892-4.676 11.325zm22 57.853c0 1.667-.583 3.083-1.75 4.25s-2.583 1.75-4.25 1.75-3.082-.583-4.249-1.75-1.75-2.583-1.75-4.25.583-3.083 1.75-4.25 2.582-1.75 4.249-1.75 3.083.583 4.25 1.75c1.166 1.167 1.75 2.584 1.75 4.25z"/></g></g></svg>